<?xml version="1.0" encoding="UTF-8"?>
<svg id="Layer_1" data-name="Layer 1" xmlns="http://www.w3.org/2000/svg" version="1.1" viewBox="0 0 960 910">
  <defs>
    <style>
      .cls-1 {
        fill: #fff;
        stroke-width: 0px;
      }
    </style>
  </defs>
  <g>
    <g>
      <path class="cls-1" d="M45.267,703.4c0-.879.322-1.582.879-1.992.205-.176.615-.557.615-1.172v-29.238c0-4.014,3.252-6.973,7.148-6.973,4.014,0,7.354,2.959,7.354,6.973v29.238c0,.615.41.996.615,1.172.557.41.879,1.113.879,1.992,0,1.377-.791,2.344-2.051,2.344h-4.16c-1.26,0-2.051-.967-2.051-2.344,0-.879.322-1.582.879-1.992.205-.176.615-.557.615-1.172v-17.051c0-.615-.293-.908-.908-.908h-2.139c-.615,0-.908.293-.908.908v17.051c0,.615.41.996.615,1.172.557.41.879,1.113.879,1.992,0,1.377-.791,2.344-2.051,2.344h-4.16c-1.26,0-2.051-.967-2.051-2.344ZM52.942,677.15h2.139c.615,0,.908-.293.908-.908v-5.244c0-1.67-.205-1.816-1.992-1.816-1.758,0-1.963.146-1.963,1.816v5.244c0,.615.293.908.908.908Z"/>
      <path class="cls-1" d="M131.8,699.475v-36.562c0-.615-.41-.996-.615-1.172-.557-.41-.879-1.113-.879-1.992,0-1.377.791-2.344,2.051-2.344h4.16c1.26,0,2.051.967,2.051,2.344,0,.879-.322,1.582-.879,1.992-.205.176-.615.557-.615,1.172v.439c0,.615.293.879.908.791.352-.088.762-.117,1.172-.117,3.896,0,7.148,2.959,7.148,6.973v28.477c0,4.014-3.252,6.973-7.148,6.973-4.014,0-7.354-2.959-7.354-6.973ZM141.028,699.475v-28.477c0-1.67-.205-1.816-1.963-1.816-1.787,0-1.992.146-1.992,1.816v28.477c0,1.67.205,1.816,1.992,1.816,1.758,0,1.963-.146,1.963-1.816Z"/>
      <path class="cls-1" d="M216.839,699.475v-28.477c0-4.014,3.34-6.973,7.354-6.973,3.896,0,7.148,2.959,7.148,6.973v13.096c0,.615.41.996.615,1.172.557.41.879,1.113.879,1.992,0,1.377-.791,2.344-2.051,2.344h-4.16c-1.26,0-2.051-.967-2.051-2.344,0-.879.322-1.582.879-1.992.205-.176.615-.557.615-1.172v-13.096c0-1.67-.205-1.816-1.963-1.816-1.787,0-1.992.146-1.992,1.816v28.477c0,1.67.205,1.816,1.992,1.816,1.758,0,1.963-.146,1.963-1.816v-.996c0-.615-.41-.996-.615-1.172-.557-.41-.879-1.113-.879-1.992,0-1.377.791-2.344,2.051-2.344h4.16c1.26,0,2.051.967,2.051,2.344,0,.879-.322,1.582-.879,1.992-.205.176-.615.557-.615,1.172v.996c0,4.014-3.252,6.973-7.148,6.973-4.014,0-7.354-2.959-7.354-6.973Z"/>
      <path class="cls-1" d="M301.878,699.475v-28.477c0-4.014,3.223-6.973,7.148-6.973.41,0,.82.029,1.143.088.615.117.938-.117.938-.732v-1.172c0-.615-.41-.996-.615-1.172-.557-.41-.879-1.113-.879-1.992,0-1.377.791-2.344,2.051-2.344h4.16c1.26,0,2.051.967,2.051,2.344,0,.879-.322,1.582-.879,1.992-.205.176-.615.557-.615,1.172v37.266c0,4.014-3.34,6.973-7.354,6.973-3.926,0-7.148-2.959-7.148-6.973ZM311.107,699.475v-28.477c0-1.67-.205-1.816-1.992-1.816-1.758,0-1.963.146-1.963,1.816v28.477c0,1.67.205,1.816,1.963,1.816,1.787,0,1.992-.146,1.992-1.816Z"/>
      <path class="cls-1" d="M386.918,699.475v-28.477c0-4.014,3.34-6.973,7.354-6.973,3.896,0,7.148,2.959,7.148,6.973v11.631c0,.615.41.996.615,1.172.557.41.879,1.113.879,1.992,0,1.377-.791,2.344-2.051,2.344h-7.764c-.615,0-.908.293-.908.908v10.43c0,1.67.205,1.816,1.992,1.816,1.758,0,1.963-.146,1.963-1.816v-2.754c0-.615-.41-.996-.615-1.172-.557-.41-.879-1.113-.879-1.992,0-1.377.791-2.344,2.051-2.344h4.16c1.26,0,2.051.967,2.051,2.344,0,.879-.322,1.582-.879,1.992-.205.176-.615.557-.615,1.172v2.754c0,4.014-3.252,6.973-7.148,6.973-4.014,0-7.354-2.959-7.354-6.973ZM393.1,683.01h2.139c.615,0,.908-.293.908-.908v-11.104c0-1.67-.205-1.816-1.963-1.816-1.787,0-1.992.146-1.992,1.816v11.104c0,.615.293.908.908.908Z"/>
      <path class="cls-1" d="M470.463,704.104c0-.879.322-1.582.879-1.992.205-.176.615-.557.615-1.172v-29.941c0-4.014,3.34-6.973,7.354-6.973,3.896,0,7.148,2.959,7.148,6.973v8.408c0,.615.41.996.615,1.172.557.41.879,1.113.879,1.992,0,1.377-.791,2.344-2.051,2.344h-4.16c-1.259,0-2.05-.967-2.05-2.344,0-.879.322-1.582.879-1.992.205-.176.615-.557.615-1.172v-8.408c0-1.67-.205-1.816-1.962-1.816-1.787,0-1.992.146-1.992,1.816v17.695c0,.615.293.908.908.908h2.812c.615,0,.996-.41,1.171-.615.41-.557,1.113-.879,1.992-.879,1.377,0,2.344.791,2.344,2.051v4.014c0,1.26-.967,2.051-2.344,2.051-.879,0-1.582-.322-1.992-.879-.176-.205-.557-.615-1.171-.615h-2.812c-.615,0-.908.293-.908.908v5.303c0,.615.41.996.615,1.172.557.41.879,1.113.879,1.992,0,1.377-.791,2.344-2.051,2.344h-4.16c-1.26,0-2.051-.967-2.051-2.344Z"/>
      <path class="cls-1" d="M557.084,699.475v-.645c0-.615-.41-.996-.615-1.172-.557-.41-.879-1.113-.879-1.992,0-1.377.791-2.344,2.051-2.344h4.16c1.26,0,2.051.967,2.051,2.344,0,.879-.322,1.582-.879,1.992-.205.176-.615.557-.615,1.172v.645c0,1.67.205,1.816,1.963,1.816,1.787,0,1.992-.146,1.992-1.816v-6.973c0-1.67-.205-1.816-1.963-1.816-3.896,0-7.266-2.959-7.266-6.973v-.352c0-1.377.352-2.607,1.055-3.75.352-.498.322-.908,0-1.465-.732-.938-1.143-2.197-1.143-3.574v-3.574c0-4.014,3.34-6.973,7.354-6.973.088,0,.176,0,.381.029.615.029.967-.205,1.289-.732l-.029.059c.322-.498.205-1.055.117-1.318-.234-.645-.117-1.406.352-2.139.762-1.143,1.963-1.523,3.018-.85l3.105,2.051.381.234c1.055.703,1.172,1.934.439,3.076-.498.732-1.143,1.143-1.846,1.201-.264.029-.82.117-1.143.645l.117-.176c-.322.527-.264.938.088,1.436.557.996.879,2.168.879,3.457v3.574c0,4.014-3.223,6.973-7.148,6.973-1.787,0-1.992.146-1.992,1.816v.85c0,1.553.322,1.816,2.08,1.816,3.896,0,7.148,2.959,7.148,6.973v6.475c0,4.014-3.34,6.973-7.354,6.973-3.896,0-7.148-2.959-7.148-6.973ZM566.225,674.572v-3.574c0-1.67-.205-1.816-1.963-1.816-1.787,0-1.992.146-1.992,1.816v3.574c0,1.67.205,1.816,1.992,1.816,1.758,0,1.963-.146,1.963-1.816Z"/>
      <path class="cls-1" d="M640.542,703.4c0-.879.322-1.582.879-1.992.205-.176.615-.557.615-1.172v-37.324c0-.615-.41-.996-.615-1.172-.557-.41-.879-1.113-.879-1.992,0-1.377.791-2.344,2.051-2.344h4.16c1.26,0,2.051.967,2.051,2.344,0,.879-.322,1.582-.879,1.992-.205.176-.615.557-.615,1.172v.439c0,.615.293.879.908.791.352-.088.762-.117,1.172-.117,3.896,0,7.148,2.959,7.148,6.973v29.238c0,.615.41.996.615,1.172.557.41.879,1.113.879,1.992,0,1.377-.791,2.344-2.051,2.344h-4.219c-1.143,0-1.846-.967-1.846-2.344,0-.879.293-1.582.791-1.992.176-.176.557-.557.557-1.172v-29.238c0-1.67-.205-1.816-1.963-1.816-1.787,0-1.992.146-1.992,1.816v29.238c0,.615.381.996.557,1.172.498.41.791,1.113.791,1.992,0,1.377-.703,2.344-1.846,2.344h-4.219c-1.26,0-2.051-.967-2.051-2.344Z"/>
      <path class="cls-1" d="M730.195,703.4c0-.879.322-1.582.879-1.992.205-.176.615-.557.615-1.172v-30c0-.615-.41-.996-.615-1.172-.557-.41-.879-1.113-.879-1.992,0-1.377.791-2.344,2.051-2.344h4.16c1.26,0,2.051.967,2.051,2.344,0,.879-.322,1.582-.879,1.992-.205.176-.615.557-.615,1.172v30c0,.615.41.996.615,1.172.557.41.879,1.113.879,1.992,0,1.377-.791,2.344-2.051,2.344h-4.16c-1.26,0-2.051-.967-2.051-2.344ZM730.811,658.781c0-2.08.908-3.193,3.516-3.193s3.516,1.113,3.516,3.193-.908,3.193-3.516,3.193-3.516-1.113-3.516-3.193Z"/>
      <path class="cls-1" d="M814.15,719.953c-.41.557-1.113.879-1.992.879-1.377,0-2.344-.791-2.344-2.051v-4.043c0-1.26.967-2.051,2.344-2.051.879,0,1.582.322,1.992.879.176.205.498.557,1.055.615,1.348-.029,1.523-.293,1.523-1.816v-42.129c0-.615-.41-.996-.615-1.172-.557-.41-.879-1.113-.879-1.992,0-1.377.791-2.344,2.051-2.344h4.16c1.26,0,2.051.967,2.051,2.344,0,.879-.322,1.582-.879,1.992-.205.176-.615.557-.615,1.172v42.129c0,4.014-3.34,6.973-7.354,6.973h.674c-.615,0-.996.41-1.172.615ZM815.85,658.781c0-2.08.908-3.193,3.516-3.193s3.516,1.113,3.516,3.193-.908,3.193-3.516,3.193-3.516-1.113-3.516-3.193Z"/>
      <path class="cls-1" d="M904.595,703.4c0-.879.322-1.582.879-1.992.205-.176.645-.557.615-1.172l-.674-13.096c-.088-1.67-.322-1.816-1.465-1.816-1.201,0-1.523.146-1.523,1.816v13.096c0,.615.41.996.615,1.172.557.41.879,1.113.879,1.992,0,1.377-.791,2.344-2.051,2.344h-4.16c-1.26,0-2.051-.967-2.051-2.344,0-.879.322-1.582.879-1.992.205-.176.615-.557.615-1.172v-33.516c0-4.98-.469-6.768-.82-7.734-.146-.41-.205-.674-.205-.967,0-.908.82-1.201,1.406-1.201.498,0,1.025.176,1.611.586.469.41.879.381,1.348,0,.527-.41,1.055-.586,1.553-.586.586,0,1.406.293,1.406,1.201,0,.293-.059.557-.205.967-.352.967-.82,2.754-.82,7.734v12.744c0,.615.293.908.908.791.586-.059.879-.381.996-.996l1.699-9.023c.117-.615-.381-.996-.586-1.172-.557-.41-.879-1.113-.879-1.992,0-1.377.791-2.344,2.051-2.344h4.688c1.26,0,2.051.967,2.051,2.344,0,.879-.205,1.67-1.084,1.992-.762.293-1.055.586-1.23,1.172l-2.93,10.342c-.146.586.029.967.498,1.377,1.201,1.23,1.992,3.047,2.08,5.186l.674,13.096c.029.615.41.996.615,1.172.557.41.879,1.113.879,1.992,0,1.377-.791,2.344-2.051,2.344h-4.16c-1.26,0-2.051-.967-2.051-2.344Z"/>
      <path class="cls-1" d="M49.881,788.4c0-.879.322-1.582.879-1.992.205-.176.615-.557.615-1.172v-33.516c0-4.98-.469-6.768-.82-7.734-.146-.41-.205-.674-.205-.967,0-.908.82-1.201,1.406-1.201.498,0,1.025.176,1.611.586.469.41.879.381,1.348,0,.527-.41,1.055-.586,1.553-.586.586,0,1.406.293,1.406,1.201,0,.293-.059.586-.205.967-.381.967-.82,2.783-.82,7.734v33.516c0,.615.41.996.615,1.172.557.41.879,1.113.879,1.992,0,1.377-.791,2.344-2.051,2.344h-4.16c-1.26,0-2.051-.967-2.051-2.344Z"/>
      <path class="cls-1" d="M135.066,788.4c0-.879.293-1.582.791-1.992.176-.176.557-.557.557-1.172v-29.238c0-1.67-.205-1.816-1.963-1.816-1.787,0-1.992.146-1.992,1.816v29.238c0,.615.381.996.557,1.172.498.41.791,1.113.791,1.992,0,1.377-.703,2.344-1.846,2.344h-4.219c-1.26,0-2.051-.967-2.051-2.344,0-.879.322-1.582.879-1.992.205-.176.615-.557.615-1.172v-29.238c0-4.014,3.34-6.973,7.354-6.973,1.406,0,2.695.381,3.867,1.084.527.352.938.293,1.465-.029,1.113-.674,2.461-1.055,3.896-1.055,3.896,0,7.148,2.959,7.148,6.973v29.238c0,.615.41.996.615,1.172.557.41.879,1.113.879,1.992,0,1.377-.791,2.344-2.051,2.344h-4.219c-1.143,0-1.846-.967-1.846-2.344,0-.879.293-1.582.791-1.992.176-.176.557-.557.557-1.172v-29.238c0-1.67-.205-1.816-1.963-1.816-1.787,0-1.992.146-1.992,1.816v29.238c0,.615.41.996.615,1.172.557.41.879,1.113.879,1.992,0,1.172-.557,2.021-1.494,2.285v.059h-5.273v-.059c-.85-.264-1.348-1.113-1.348-2.285Z"/>
      <path class="cls-1" d="M215.345,788.4c0-.879.322-1.582.879-1.992.205-.176.615-.557.615-1.172v-29.238c0-4.014,3.34-6.973,7.354-6.973,3.896,0,7.148,2.959,7.148,6.973v29.238c0,.615.41.996.615,1.172.557.41.879,1.113.879,1.992,0,1.377-.791,2.344-2.051,2.344h-4.219c-1.143,0-1.846-.967-1.846-2.344,0-.879.293-1.582.791-1.992.176-.176.557-.557.557-1.172v-29.238c0-1.67-.205-1.816-1.963-1.816-1.787,0-1.992.146-1.992,1.816v29.238c0,.615.381.996.557,1.172.498.41.791,1.113.791,1.992,0,1.377-.703,2.344-1.846,2.344h-4.219c-1.26,0-2.051-.967-2.051-2.344Z"/>
      <path class="cls-1" d="M301.878,784.475v-28.477c0-4.014,3.34-6.973,7.354-6.973,3.896,0,7.148,2.959,7.148,6.973v28.477c0,4.014-3.252,6.973-7.148,6.973-4.014,0-7.354-2.959-7.354-6.973ZM311.107,784.475v-28.477c0-1.67-.205-1.816-1.963-1.816-1.787,0-1.992.146-1.992,1.816v28.477c0,1.67.205,1.816,1.992,1.816,1.758,0,1.963-.146,1.963-1.816Z"/>
      <path class="cls-1" d="M393.129,791.359c-.615-.117-.938.117-.938.732v1.172c0,.615.41.996.615,1.172.557.41.879,1.113.879,1.992,0,1.377-.791,2.344-2.051,2.344h-4.16c-1.26,0-2.051-.967-2.051-2.344,0-.879.322-1.582.879-1.992.205-.176.615-.557.615-1.172v-37.266c0-4.014,3.34-6.973,7.354-6.973,3.926,0,7.148,2.959,7.148,6.973v28.477c0,4.014-3.223,6.973-7.148,6.973-.41,0-.82-.029-1.143-.088ZM396.147,784.475v-28.477c0-1.67-.205-1.816-1.963-1.816-1.787,0-1.992.146-1.992,1.816v28.477c0,1.67.205,1.816,1.992,1.816,1.758,0,1.963-.146,1.963-1.816Z"/>
      <path class="cls-1" d="M471.958,784.475v-28.477c0-4.014,3.34-6.973,7.354-6.973,3.896,0,7.148,2.959,7.148,6.973v28.477c0,.908-.146,1.758-.498,2.607-.264.557-.146.967.264,1.406l1.055,1.143c.41.439.967.439,1.23.439.703-.088,1.406.205,1.992.85.938,1.025,1.025,2.285.088,3.135l-.322.293-1.934,1.787-.322.293c-.938.85-2.168.674-3.105-.322-.586-.645-.82-1.377-.703-2.051.029-.293.088-.85-.352-1.289l-1.172-1.289c-.439-.439-.85-.498-1.436-.293-.585.176-1.259.264-1.933.264-4.014,0-7.354-2.959-7.354-6.973ZM481.186,784.475v-28.477c0-1.67-.205-1.816-1.962-1.816-1.787,0-1.992.146-1.992,1.816v28.477c0,1.67.205,1.816,1.992,1.816,1.758,0,1.962-.146,1.962-1.816Z"/>
      <path class="cls-1" d="M555.502,788.4c0-.879.322-1.582.879-1.992.205-.176.615-.557.615-1.172v-29.238c0-4.014,3.34-6.973,7.354-6.973,3.896,0,7.148,2.959,7.148,6.973v6.65c0,.615.41.996.615,1.172.557.41.879,1.113.879,1.992,0,1.377-.791,2.344-2.051,2.344h-4.16c-1.26,0-2.051-.967-2.051-2.344,0-.879.322-1.582.879-1.992.205-.176.615-.557.615-1.172v-6.65c0-1.67-.205-1.816-1.963-1.816-1.787,0-1.992.146-1.992,1.816v29.238c0,.615.41.996.615,1.172.557.41.879,1.113.879,1.992,0,1.377-.791,2.344-2.051,2.344h-4.16c-1.26,0-2.051-.967-2.051-2.344Z"/>
      <path class="cls-1" d="M642.036,784.475v-.645c0-.615-.41-.996-.615-1.172-.557-.41-.879-1.113-.879-1.992,0-1.377.791-2.344,2.051-2.344h4.16c1.26,0,2.051.967,2.051,2.344,0,.879-.322,1.582-.879,1.992-.205.176-.615.557-.615,1.172v.645c0,1.67.205,1.816,1.963,1.816,1.787,0,1.992-.146,1.992-1.816v-6.387c0-1.67-.205-1.816-1.963-1.816-3.896,0-7.266-2.959-7.266-6.973v-13.301c0-4.014,3.34-6.973,7.354-6.973,3.896,0,7.148,2.959,7.148,6.973v8.174c0,.615.41.996.615,1.172.557.41.879,1.113.879,1.992,0,1.377-.791,2.344-2.051,2.344h-4.16c-1.26,0-2.051-.967-2.051-2.344,0-.879.322-1.582.879-1.992.205-.176.615-.557.615-1.172v-8.174c0-1.67-.205-1.816-1.963-1.816-1.787,0-1.992.146-1.992,1.816v13.799c0,1.553.322,1.816,2.08,1.816,3.896,0,7.148,2.959,7.148,6.973v5.889c0,4.014-3.34,6.973-7.354,6.973-3.896,0-7.148-2.959-7.148-6.973Z"/>
      <path class="cls-1" d="M727.075,784.475v-36.562c0-.615-.41-.996-.615-1.172-.557-.41-.879-1.113-.879-1.992,0-1.377.791-2.344,2.051-2.344h4.16c1.26,0,2.051.967,2.051,2.344,0,.879-.322,1.582-.879,1.992-.205.176-.615.557-.615,1.172v.908c0,.615.293.908.908.908h2.812c.615,0,.996-.41,1.172-.615.41-.557,1.113-.879,1.992-.879,1.377,0,2.344.791,2.344,2.051v4.014c0,1.26-.967,2.051-2.344,2.051-.879,0-1.582-.322-1.992-.879-.176-.205-.557-.615-1.172-.615h-2.812c-.615,0-.908.293-.908.908v28.711c0,1.67.205,1.816,1.992,1.816,1.758,0,1.963-.146,1.963-1.816v-19.424c0-.615-.41-.996-.615-1.172-.557-.41-.879-1.113-.879-1.992,0-1.377.791-2.344,2.051-2.344h4.16c1.26,0,2.051.967,2.051,2.344,0,.879-.322,1.582-.879,1.992-.205.176-.615.557-.615,1.172v19.424c0,4.014-3.252,6.973-7.148,6.973-4.014,0-7.354-2.959-7.354-6.973Z"/>
      <path class="cls-1" d="M812.114,784.475v-29.238c0-.615-.41-.996-.615-1.172-.557-.41-.879-1.113-.879-1.992,0-1.377.791-2.344,2.051-2.344h4.219c1.143,0,1.846.967,1.846,2.344,0,.879-.293,1.582-.791,1.992-.176.176-.557.557-.557,1.172v29.238c0,1.67.205,1.816,1.963,1.816,1.787,0,1.992-.146,1.992-1.816v-29.238c0-.615-.381-.996-.557-1.172-.498-.41-.791-1.113-.791-1.992,0-1.377.703-2.344,1.846-2.344h4.219c1.26,0,2.051.967,2.051,2.344,0,.879-.322,1.582-.879,1.992-.205.176-.615.557-.615,1.172v29.238c0,4.014-3.34,6.973-7.354,6.973-3.896,0-7.148-2.959-7.148-6.973Z"/>
      <path class="cls-1" d="M898.325,784.475l-.996-29.238c0-.615-.41-.996-.615-1.172-.557-.41-.879-1.113-.879-1.992,0-1.377.791-2.344,2.051-2.344h4.219c1.143,0,1.846.967,1.846,2.344,0,.879-.293,1.582-.791,1.992-.176.176-.557.557-.557,1.172l.996,29.238c0,1.67.088,1.816.791,1.816.732,0,.791-.146.82-1.816l.996-29.238c0-.615-.381-.996-.557-1.172-.498-.41-.791-1.113-.791-1.992,0-1.377.703-2.344,1.846-2.344h4.219c1.26,0,2.051.967,2.051,2.344,0,.879-.322,1.582-.879,1.992-.205.176-.615.557-.615,1.172l-.996,29.238c-.146,4.688-2.812,6.973-6.182,6.973-3.252,0-5.83-2.285-5.977-6.973Z"/>
      <path class="cls-1" d="M54.715,875.334c-.498-.322-.938-.264-1.436.088-1.084.645-2.373,1.025-3.779,1.025-4.014,0-7.354-2.959-7.354-6.973v-29.238c0-.615-.41-.996-.615-1.172-.557-.41-.879-1.113-.879-1.992,0-1.377.791-2.344,2.051-2.344h4.219c1.143,0,1.846.967,1.846,2.344,0,.879-.293,1.582-.791,1.992-.176.176-.557.557-.557,1.172v29.238c0,1.67.205,1.816,1.992,1.816,1.758,0,1.963-.146,1.963-1.816v-29.238c0-.615-.381-.996-.557-1.172-.498-.41-.791-1.113-.791-1.992,0-1.172.498-2.021,1.348-2.285v-.059h5.273v.059c.938.264,1.494,1.113,1.494,2.285,0,.879-.322,1.582-.879,1.992-.205.176-.615.557-.615,1.172v29.238c0,1.67.205,1.816,1.992,1.816,1.758,0,1.963-.146,1.963-1.816v-29.238c0-.615-.381-.996-.557-1.172-.498-.41-.791-1.113-.791-1.992,0-1.377.703-2.344,1.846-2.344h4.219c1.26,0,2.051.967,2.051,2.344,0,.879-.322,1.582-.879,1.992-.205.176-.615.557-.615,1.172v29.238c0,4.014-3.252,6.973-7.148,6.973-1.436,0-2.783-.381-4.014-1.113Z"/>
      <path class="cls-1" d="M139.886,873.4c0-.879.322-1.582.879-1.992.205-.176.703-.557.586-1.172l-2.021-13.066c-.117-.615-.381-.791-.498-.176l-2.08,13.242c-.117.615.381.996.586,1.172.557.41.879,1.113.879,1.992,0,1.377-.791,2.344-2.051,2.344h-4.512c-1.26,0-2.051-.967-2.051-2.344,0-.879.205-1.67,1.084-1.992.762-.293,1.113-.586,1.23-1.172l3.574-16.23c.117-.586-.059-.967-.234-1.582l-3.34-12.188c-.176-.586-.469-.879-1.23-1.172-.879-.322-1.084-1.113-1.084-1.992,0-1.377.791-2.344,2.051-2.344h4.658c1.26,0,2.051.967,2.051,2.344,0,.879-.322,1.582-.879,1.992-.205.176-.703.557-.586,1.172l1.875,10.02c.117.615.41.791.527.205l1.904-10.225c.117-.615-.381-.996-.586-1.172-.557-.41-.879-1.113-.879-1.992,0-1.377.791-2.344,2.051-2.344h4.658c1.26,0,2.051.967,2.051,2.344,0,.879-.205,1.67-1.084,1.992-.762.293-1.055.586-1.23,1.172l-3.545,12.891c-.146.586,0,.996.146,1.582l3.398,15.527c.117.586.469.879,1.23,1.172.879.322,1.084,1.113,1.084,1.992,0,1.377-.791,2.344-2.051,2.344h-4.512c-1.26,0-2.051-.967-2.051-2.344Z"/>
      <path class="cls-1" d="M216.839,869.475v-29.238c0-.615-.41-.996-.615-1.172-.557-.41-.879-1.113-.879-1.992,0-1.377.791-2.344,2.051-2.344h4.219c1.143,0,1.846.967,1.846,2.344,0,.879-.293,1.582-.791,1.992-.176.176-.557.557-.557,1.172v29.238c0,1.67.205,1.816,1.992,1.816,1.758,0,1.963-.146,1.963-1.816v-29.238c0-.615-.381-.996-.557-1.172-.498-.41-.791-1.113-.791-1.992,0-1.377.703-2.344,1.846-2.344h4.219c1.26,0,2.051.967,2.051,2.344,0,.879-.322,1.582-.879,1.992-.205.176-.615.557-.615,1.172v38.027c0,.615.41.996.615,1.172.557.41.879,1.113.879,1.992,0,1.377-.791,2.344-2.051,2.344h-4.16c-1.26,0-2.051-.967-2.051-2.344,0-.879.322-1.582.879-1.992.205-.176.615-.557.615-1.172v-1.113c0-.615-.293-.879-.908-.762-.293.029-.645.059-.967.059-4.014,0-7.354-2.959-7.354-6.973Z"/>
      <path class="cls-1" d="M301.878,873.4c0-2.344.527-5.01,1.084-7.178l6.416-25.4c.146-.586-.059-.938-.674-.938h-1.289c-.615,0-.996.41-1.172.615-.41.557-1.113.879-1.992.879-1.377,0-2.344-.791-2.344-2.051v-4.043c0-1.26.967-2.051,2.344-2.051.879,0,1.582.322,1.992.879.176.205.557.615,1.172.615h4.746c1.523,0,2.9.732,2.9,2.285,0,2.52-.498,4.834-.82,6.064l-6.68,26.572c-.146.586.059.938.674.938h2.197c.615,0,.996-.41,1.172-.615.41-.557,1.113-.879,1.992-.879,1.377,0,2.344.791,2.344,2.051v4.043c0,1.26-.967,2.051-2.344,2.051-.879,0-1.582-.322-1.992-.879-.176-.205-.557-.615-1.172-.615h-6.211c-1.523,0-2.344-.82-2.344-2.344Z"/>
      <path class="cls-1" d="M385.424,873.4c0-.879.322-1.582.879-1.992.205-.176.615-.557.615-1.172v-29.238c0-4.014,3.252-6.973,7.148-6.973,4.014,0,7.354,2.959,7.354,6.973v29.238c0,.615.41.996.615,1.172.557.41.879,1.113.879,1.992,0,1.377-.791,2.344-2.051,2.344h-4.16c-1.26,0-2.051-.967-2.051-2.344,0-.879.322-1.582.879-1.992.205-.176.615-.557.615-1.172v-17.051c0-.615-.293-.908-.908-.908h-2.139c-.615,0-.908.293-.908.908v17.051c0,.615.41.996.615,1.172.557.41.879,1.113.879,1.992,0,1.377-.791,2.344-2.051,2.344h-4.16c-1.26,0-2.051-.967-2.051-2.344ZM389.76,828.547c0-2.812,2.109-4.395,4.453-4.395,2.52,0,4.453,1.758,4.453,4.395,0,2.812-2.109,4.395-4.453,4.395-2.52,0-4.453-1.758-4.453-4.395ZM393.1,847.15h2.139c.615,0,.908-.293.908-.908v-5.244c0-1.67-.205-1.816-1.992-1.816-1.758,0-1.963.146-1.963,1.816v5.244c0,.615.293.908.908.908ZM395.151,828.547c0-.703-.293-.996-.938-.996s-.938.293-.938.996.293.996.938.996.938-.293.938-.996Z"/>
      <path class="cls-1" d="M469.321,832.414c0-1.67.703-2.578,2.812-2.578s2.812.908,2.812,2.578-.703,2.578-2.812,2.578-2.812-.908-2.812-2.578ZM470.639,873.4c0-.879.322-1.582.879-1.992.205-.176.615-.557.615-1.172v-29.238c0-4.014,3.252-6.973,7.148-6.973,4.013,0,7.353,2.959,7.353,6.973v29.238c0,.615.41.996.615,1.172.557.41.879,1.113.879,1.992,0,1.377-.791,2.344-2.051,2.344h-4.16c-1.259,0-2.05-.967-2.05-2.344,0-.879.322-1.582.879-1.992.205-.176.615-.557.615-1.172v-17.051c0-.615-.293-.908-.908-.908h-2.139c-.615,0-.908.293-.908.908v17.051c0,.615.41.996.615,1.172.557.41.879,1.113.879,1.992,0,1.377-.791,2.344-2.051,2.344h-4.16c-1.26,0-2.051-.967-2.051-2.344ZM478.315,847.15h2.139c.615,0,.908-.293.908-.908v-5.244c0-1.67-.205-1.816-1.992-1.816-1.758,0-1.963.146-1.963,1.816v5.244c0,.615.293.908.908.908ZM483.471,832.414c0-1.67.703-2.578,2.812-2.578s2.812.908,2.812,2.578-.703,2.578-2.812,2.578-2.812-.908-2.812-2.578Z"/>
      <path class="cls-1" d="M554.359,832.414c0-1.67.703-2.578,2.812-2.578s2.812.908,2.812,2.578-.703,2.578-2.812,2.578-2.812-.908-2.812-2.578ZM556.967,869.475v-28.477c0-4.014,3.34-6.973,7.354-6.973,3.896,0,7.148,2.959,7.148,6.973v28.477c0,4.014-3.252,6.973-7.148,6.973-4.014,0-7.354-2.959-7.354-6.973ZM566.195,869.475v-28.477c0-1.67-.205-1.816-1.963-1.816-1.787,0-1.992.146-1.992,1.816v28.477c0,1.67.205,1.816,1.992,1.816,1.758,0,1.963-.146,1.963-1.816ZM568.51,832.414c0-1.67.703-2.578,2.812-2.578s2.812.908,2.812,2.578-.703,2.578-2.812,2.578-2.812-.908-2.812-2.578Z"/>
      <path class="cls-1" d="M642.036,869.475v-7.412c0-4.014,3.34-6.973,7.354-6.973.322,0,.674.029.938.059.615.117.938-.117.938-.732v-13.418c0-1.67-.205-1.816-1.992-1.816-1.758,0-1.963.146-1.963,1.816v5.566c0,.615.41.996.615,1.172.557.41.879,1.113.879,1.992,0,1.377-.791,2.344-2.051,2.344h-4.16c-1.26,0-2.051-.967-2.051-2.344,0-.879.322-1.582.879-1.992.205-.176.615-.557.615-1.172v-5.566c0-4.014,3.252-6.973,7.148-6.973,4.014,0,7.354,2.959,7.354,6.973v28.477c0,4.014-3.34,6.973-7.354,6.973-3.896,0-7.148-2.959-7.148-6.973ZM649.272,871.291c1.787,0,1.992-.146,1.992-1.816v-7.412c0-1.67-.205-1.816-1.963-1.816-1.787,0-1.992.146-1.992,1.816v7.412c0,1.67.205,1.816,1.963,1.816Z"/>
      <path class="cls-1" d="M730.811,873.254c0-2.08.908-3.193,3.516-3.193s3.516,1.113,3.516,3.193-.908,3.193-3.516,3.193-3.516-1.113-3.516-3.193Z"/>
      <path class="cls-1" d="M815.85,873.254c0-2.08.908-3.193,3.516-3.193s3.809,1.113,3.809,3.633c0,3.926-1.465,5.801-3.105,5.801-.703,0-.967-.264-.967-.791,0-.322.205-.439.352-1.348.088-.615-.176-.938-.791-.908h.176c-2.08,0-2.988-1.113-2.988-3.193Z"/>
    </g>
    <g>
      <rect class="cls-1" x="947.482" y="642.292" width=".676" height="255.501"/>
      <rect class="cls-1" x="862.442" y="642.292" width=".676" height="255.501"/>
      <rect class="cls-1" x="777.403" y="642.292" width=".676" height="255.501"/>
      <rect class="cls-1" x="692.364" y="642.292" width=".676" height="255.501"/>
      <rect class="cls-1" x="607.324" y="642.292" width=".676" height="255.501"/>
      <rect class="cls-1" x="522.285" y="642.292" width=".676" height="255.501"/>
      <rect class="cls-1" x="437.246" y="642.292" width=".676" height="255.501"/>
      <rect class="cls-1" x="352.206" y="642.292" width=".676" height="255.501"/>
      <rect class="cls-1" x="267.167" y="642.292" width=".676" height="255.501"/>
      <rect class="cls-1" x="182.127" y="642.292" width=".676" height="255.501"/>
      <rect class="cls-1" x="97.088" y="642.292" width=".676" height="255.501"/>
      <rect class="cls-1" x="12.049" y="642.292" width=".676" height="255.501"/>
    </g>
    <g>
      <rect class="cls-1" x="12.049" y="897.41" width="935.979" height=".676"/>
      <rect class="cls-1" x="12.049" y="812.371" width="935.979" height=".676"/>
      <rect class="cls-1" x="12.049" y="727.332" width="935.979" height=".676"/>
      <rect class="cls-1" x="12.049" y="642.292" width="935.979" height=".676"/>
    </g>
  </g>
  <g>
    <path class="cls-1" d="M22.685,471.12v-60.938c0-1.025-.684-1.66-1.025-1.953-.928-.684-1.465-1.855-1.465-3.32,0-2.295,1.318-3.906,3.418-3.906h6.934c2.1,0,3.418,1.611,3.418,3.906,0,1.465-.537,2.637-1.465,3.32-.342.293-1.025.928-1.025,1.953v1.514c0,1.025.488,1.514,1.514,1.514h4.688c1.025,0,1.66-.684,1.953-1.025.684-.928,1.855-1.465,3.32-1.465,2.295,0,3.906,1.318,3.906,3.418v6.689c0,2.1-1.611,3.418-3.906,3.418-1.465,0-2.637-.537-3.32-1.465-.293-.342-.928-1.025-1.953-1.025h-4.688c-1.025,0-1.514.488-1.514,1.514v47.852c0,2.783.342,3.027,3.32,3.027,2.93,0,3.271-.244,3.271-3.027v-32.373c0-1.025-.684-1.66-1.025-1.953-.928-.684-1.465-1.855-1.465-3.32,0-2.295,1.318-3.906,3.418-3.906h6.934c2.1,0,3.418,1.611,3.418,3.906,0,1.465-.537,2.637-1.465,3.32-.342.293-1.025.928-1.025,1.953v32.373c0,6.689-5.42,11.621-11.914,11.621-6.689,0-12.256-4.932-12.256-11.621Z"/>
    <path class="cls-1" d="M53.153,477.663c0-1.465.537-2.637,1.465-3.32.342-.293,1.025-.928,1.025-1.953v-62.207c0-1.025-.684-1.66-1.025-1.953-.928-.684-1.465-1.855-1.465-3.32,0-2.295,1.318-3.906,3.418-3.906h6.934c2.1,0,3.418,1.611,3.418,3.906,0,1.465-.537,2.637-1.465,3.32-.342.293-1.025.928-1.025,1.953v.732c0,1.025.488,1.465,1.514,1.318.586-.146,1.27-.195,1.953-.195,6.494,0,11.914,4.932,11.914,11.621v48.73c0,1.025.684,1.66,1.025,1.953.928.684,1.465,1.855,1.465,3.32,0,2.295-1.318,3.906-3.418,3.906h-7.031c-1.904,0-3.076-1.611-3.076-3.906,0-1.465.488-2.637,1.318-3.32.293-.293.928-.928.928-1.953v-48.73c0-2.783-.342-3.027-3.271-3.027-2.979,0-3.32.244-3.32,3.027v48.73c0,1.025.635,1.66.928,1.953.83.684,1.318,1.855,1.318,3.32,0,2.295-1.172,3.906-3.076,3.906h-7.031c-2.1,0-3.418-1.611-3.418-3.906Z"/>
    <path class="cls-1" d="M88.603,471.12v-47.461c0-6.689,5.566-11.621,12.256-11.621,6.494,0,11.914,4.932,11.914,11.621v19.385c0,1.025.684,1.66,1.025,1.953.928.684,1.465,1.855,1.465,3.32,0,2.295-1.318,3.906-3.418,3.906h-12.939c-1.025,0-1.514.488-1.514,1.514v17.383c0,2.783.342,3.027,3.32,3.027,2.93,0,3.271-.244,3.271-3.027v-4.59c0-1.025-.684-1.66-1.025-1.953-.928-.684-1.465-1.855-1.465-3.32,0-2.295,1.318-3.906,3.418-3.906h6.934c2.1,0,3.418,1.611,3.418,3.906,0,1.465-.537,2.637-1.465,3.32-.342.293-1.025.928-1.025,1.953v4.59c0,6.689-5.42,11.621-11.914,11.621-6.689,0-12.256-4.932-12.256-11.621ZM98.905,443.679h3.564c1.025,0,1.514-.488,1.514-1.514v-18.506c0-2.783-.342-3.027-3.271-3.027-2.979,0-3.32.244-3.32,3.027v18.506c0,1.025.488,1.514,1.514,1.514Z"/>
    <path class="cls-1" d="M141.337,471.12v-47.461c0-6.689,5.566-11.621,12.256-11.621,6.494,0,11.914,4.932,11.914,11.621v47.461c0,1.514-.244,2.93-.83,4.346-.439.928-.244,1.611.439,2.344l1.758,1.904c.684.732,1.611.732,2.051.732,1.172-.146,2.344.342,3.32,1.416,1.562,1.709,1.709,3.809.146,5.225l-.537.488-3.223,2.979-.537.488c-1.562,1.416-3.613,1.123-5.176-.537-.977-1.074-1.367-2.295-1.172-3.418.049-.488.146-1.416-.586-2.148l-1.953-2.148c-.732-.732-1.416-.83-2.393-.488-.977.293-2.1.439-3.223.439-6.689,0-12.256-4.932-12.256-11.621ZM156.718,471.12v-47.461c0-2.783-.342-3.027-3.271-3.027-2.979,0-3.32.244-3.32,3.027v47.461c0,2.783.342,3.027,3.32,3.027,2.93,0,3.271-.244,3.271-3.027Z"/>
    <path class="cls-1" d="M174.296,471.12v-48.73c0-1.025-.684-1.66-1.025-1.953-.928-.684-1.465-1.855-1.465-3.32,0-2.295,1.318-3.906,3.418-3.906h7.031c1.904,0,3.076,1.611,3.076,3.906,0,1.465-.488,2.637-1.318,3.32-.293.293-.928.928-.928,1.953v48.73c0,2.783.342,3.027,3.271,3.027,2.979,0,3.32-.244,3.32-3.027v-48.73c0-1.025-.635-1.66-.928-1.953-.83-.684-1.318-1.855-1.318-3.32,0-2.295,1.172-3.906,3.076-3.906h7.031c2.1,0,3.418,1.611,3.418,3.906,0,1.465-.537,2.637-1.465,3.32-.342.293-1.025.928-1.025,1.953v48.73c0,6.689-5.566,11.621-12.256,11.621-6.494,0-11.914-4.932-11.914-11.621Z"/>
    <path class="cls-1" d="M204.765,477.663c0-1.465.537-2.637,1.465-3.32.342-.293,1.025-.928,1.025-1.953v-50c0-1.025-.684-1.66-1.025-1.953-.928-.684-1.465-1.855-1.465-3.32,0-2.295,1.318-3.906,3.418-3.906h6.934c2.1,0,3.418,1.611,3.418,3.906,0,1.465-.537,2.637-1.465,3.32-.342.293-1.025.928-1.025,1.953v50c0,1.025.684,1.66,1.025,1.953.928.684,1.465,1.855,1.465,3.32,0,2.295-1.318,3.906-3.418,3.906h-6.934c-2.1,0-3.418-1.611-3.418-3.906ZM205.79,403.298c0-3.467,1.514-5.322,5.859-5.322s5.859,1.855,5.859,5.322-1.514,5.322-5.859,5.322-5.859-1.855-5.859-5.322Z"/>
    <path class="cls-1" d="M224.833,471.12v-47.461c0-6.689,5.566-11.621,12.256-11.621,6.494,0,11.914,4.932,11.914,11.621v21.826c0,1.025.684,1.66,1.025,1.953.928.684,1.465,1.855,1.465,3.32,0,2.295-1.318,3.906-3.418,3.906h-6.934c-2.1,0-3.418-1.611-3.418-3.906,0-1.465.537-2.637,1.465-3.32.342-.293,1.025-.928,1.025-1.953v-21.826c0-2.783-.342-3.027-3.271-3.027-2.979,0-3.32.244-3.32,3.027v47.461c0,2.783.342,3.027,3.32,3.027,2.93,0,3.271-.244,3.271-3.027v-1.66c0-1.025-.684-1.66-1.025-1.953-.928-.684-1.465-1.855-1.465-3.32,0-2.295,1.318-3.906,3.418-3.906h6.934c2.1,0,3.418,1.611,3.418,3.906,0,1.465-.537,2.637-1.465,3.32-.342.293-1.025.928-1.025,1.953v1.66c0,6.689-5.42,11.621-11.914,11.621-6.689,0-12.256-4.932-12.256-11.621Z"/>
    <path class="cls-1" d="M270.194,477.663c0-1.465.537-2.637,1.465-3.32.342-.293,1.074-.928,1.025-1.953l-1.123-21.826c-.146-2.783-.537-3.027-2.441-3.027-2.002,0-2.539.244-2.539,3.027v21.826c0,1.025.684,1.66,1.025,1.953.928.684,1.465,1.855,1.465,3.32,0,2.295-1.318,3.906-3.418,3.906h-6.934c-2.1,0-3.418-1.611-3.418-3.906,0-1.465.537-2.637,1.465-3.32.342-.293,1.025-.928,1.025-1.953v-55.859c0-8.301-.781-11.279-1.367-12.891-.244-.684-.342-1.123-.342-1.611,0-1.514,1.367-2.002,2.344-2.002.83,0,1.709.293,2.686.977.781.684,1.465.635,2.246,0,.879-.684,1.758-.977,2.588-.977.977,0,2.344.488,2.344,2.002,0,.488-.098.928-.342,1.611-.586,1.611-1.367,4.59-1.367,12.891v21.24c0,1.025.488,1.514,1.514,1.318.977-.098,1.465-.635,1.66-1.66l2.832-15.039c.195-1.025-.635-1.66-.977-1.953-.928-.684-1.465-1.855-1.465-3.32,0-2.295,1.318-3.906,3.418-3.906h7.812c2.1,0,3.418,1.611,3.418,3.906,0,1.465-.342,2.783-1.807,3.32-1.27.488-1.758.977-2.051,1.953l-4.883,17.236c-.244.977.049,1.611.83,2.295,2.002,2.051,3.32,5.078,3.467,8.643l1.123,21.826c.049,1.025.684,1.66,1.025,1.953.928.684,1.465,1.855,1.465,3.32,0,2.295-1.318,3.906-3.418,3.906h-6.934c-2.1,0-3.418-1.611-3.418-3.906Z"/>
    <path class="cls-1" d="M310.526,471.12v-60.938c0-1.025-.684-1.66-1.025-1.953-.928-.684-1.465-1.855-1.465-3.32,0-2.295,1.318-3.906,3.418-3.906h6.934c2.1,0,3.418,1.611,3.418,3.906,0,1.465-.537,2.637-1.465,3.32-.342.293-1.025.928-1.025,1.953v.732c0,1.025.488,1.465,1.514,1.318.586-.146,1.27-.195,1.953-.195,6.494,0,11.914,4.932,11.914,11.621v47.461c0,6.689-5.42,11.621-11.914,11.621-6.689,0-12.256-4.932-12.256-11.621ZM325.907,471.12v-47.461c0-2.783-.342-3.027-3.271-3.027-2.979,0-3.32.244-3.32,3.027v47.461c0,2.783.342,3.027,3.32,3.027,2.93,0,3.271-.244,3.271-3.027Z"/>
    <path class="cls-1" d="M340.995,477.663c0-1.465.537-2.637,1.465-3.32.342-.293,1.025-.928,1.025-1.953v-48.73c0-6.689,5.566-11.621,12.256-11.621,6.494,0,11.914,4.932,11.914,11.621v11.084c0,1.025.684,1.66,1.025,1.953.928.684,1.465,1.855,1.465,3.32,0,2.295-1.318,3.906-3.418,3.906h-6.934c-2.1,0-3.418-1.611-3.418-3.906,0-1.465.537-2.637,1.465-3.32.342-.293,1.025-.928,1.025-1.953v-11.084c0-2.783-.342-3.027-3.271-3.027-2.979,0-3.32.244-3.32,3.027v48.73c0,1.025.684,1.66,1.025,1.953.928.684,1.465,1.855,1.465,3.32,0,2.295-1.318,3.906-3.418,3.906h-6.934c-2.1,0-3.418-1.611-3.418-3.906Z"/>
    <path class="cls-1" d="M376.444,471.12v-47.461c0-6.689,5.566-11.621,12.256-11.621,6.494,0,11.914,4.932,11.914,11.621v47.461c0,6.689-5.42,11.621-11.914,11.621-6.689,0-12.256-4.932-12.256-11.621ZM391.825,471.12v-47.461c0-2.783-.342-3.027-3.271-3.027-2.979,0-3.32.244-3.32,3.027v47.461c0,2.783.342,3.027,3.32,3.027,2.93,0,3.271-.244,3.271-3.027Z"/>
    <path class="cls-1" d="M430.351,480.886c-.83-.537-1.562-.439-2.393.146-1.807,1.074-3.955,1.709-6.299,1.709-6.689,0-12.256-4.932-12.256-11.621v-48.73c0-1.025-.684-1.66-1.025-1.953-.928-.684-1.465-1.855-1.465-3.32,0-2.295,1.318-3.906,3.418-3.906h7.031c1.904,0,3.076,1.611,3.076,3.906,0,1.465-.488,2.637-1.318,3.32-.293.293-.928.928-.928,1.953v48.73c0,2.783.342,3.027,3.32,3.027,2.93,0,3.271-.244,3.271-3.027v-48.73c0-1.025-.635-1.66-.928-1.953-.83-.684-1.318-1.855-1.318-3.32,0-1.953.83-3.369,2.246-3.809v-.098h8.789v.098c1.562.439,2.49,1.855,2.49,3.809,0,1.465-.537,2.637-1.465,3.32-.342.293-1.025.928-1.025,1.953v48.73c0,2.783.342,3.027,3.32,3.027,2.93,0,3.271-.244,3.271-3.027v-48.73c0-1.025-.635-1.66-.928-1.953-.83-.684-1.318-1.855-1.318-3.32,0-2.295,1.172-3.906,3.076-3.906h7.031c2.1,0,3.418,1.611,3.418,3.906,0,1.465-.537,2.637-1.465,3.32-.342.293-1.025.928-1.025,1.953v48.73c0,6.689-5.42,11.621-11.914,11.621-2.393,0-4.639-.635-6.689-1.855Z"/>
    <path class="cls-1" d="M455.253,477.663c0-1.465.537-2.637,1.465-3.32.342-.293,1.025-.928,1.025-1.953v-48.73c0-6.689,5.566-11.621,12.256-11.621,6.494,0,11.914,4.932,11.914,11.621v48.73c0,1.025.684,1.66,1.025,1.953.928.684,1.465,1.855,1.465,3.32,0,2.295-1.318,3.906-3.418,3.906h-7.031c-1.904,0-3.076-1.611-3.076-3.906,0-1.465.488-2.637,1.318-3.32.293-.293.928-.928.928-1.953v-48.73c0-2.783-.342-3.027-3.271-3.027-2.979,0-3.32.244-3.32,3.027v48.73c0,1.025.635,1.66.928,1.953.83.684,1.318,1.855,1.318,3.32,0,2.295-1.172,3.906-3.076,3.906h-7.031c-2.1,0-3.418-1.611-3.418-3.906Z"/>
    <path class="cls-1" d="M507.987,478.835c0-1.465.537-2.637,1.465-3.32.342-.293,1.025-.928,1.025-1.953v-49.902c0-6.689,5.566-11.621,12.256-11.621,6.494,0,11.914,4.932,11.914,11.621v14.014c0,1.025.684,1.66,1.025,1.953.928.684,1.465,1.855,1.465,3.32,0,2.295-1.318,3.906-3.418,3.906h-6.934c-2.1,0-3.418-1.611-3.418-3.906,0-1.465.537-2.637,1.465-3.32.342-.293,1.025-.928,1.025-1.953v-14.014c0-2.783-.342-3.027-3.271-3.027-2.979,0-3.32.244-3.32,3.027v29.492c0,1.025.488,1.514,1.514,1.514h4.688c1.025,0,1.66-.684,1.953-1.025.684-.928,1.855-1.465,3.32-1.465,2.295,0,3.906,1.318,3.906,3.418v6.689c0,2.1-1.611,3.418-3.906,3.418-1.465,0-2.637-.537-3.32-1.465-.293-.342-.928-1.025-1.953-1.025h-4.688c-1.025,0-1.514.488-1.514,1.514v8.838c0,1.025.684,1.66,1.025,1.953.928.684,1.465,1.855,1.465,3.32,0,2.295-1.318,3.906-3.418,3.906h-6.934c-2.1,0-3.418-1.611-3.418-3.906Z"/>
    <path class="cls-1" d="M543.437,471.12v-47.461c0-6.689,5.566-11.621,12.256-11.621,6.494,0,11.914,4.932,11.914,11.621v47.461c0,6.689-5.42,11.621-11.914,11.621-6.689,0-12.256-4.932-12.256-11.621ZM558.817,471.12v-47.461c0-2.783-.342-3.027-3.271-3.027-2.979,0-3.32.244-3.32,3.027v47.461c0,2.783.342,3.027,3.32,3.027,2.93,0,3.271-.244,3.271-3.027Z"/>
    <path class="cls-1" d="M589.872,477.663c0-1.465.537-2.637,1.465-3.32.342-.293,1.172-.928.977-1.953l-3.369-21.777c-.195-1.025-.635-1.318-.83-.293l-3.467,22.07c-.195,1.025.635,1.66.977,1.953.928.684,1.465,1.855,1.465,3.32,0,2.295-1.318,3.906-3.418,3.906h-7.52c-2.1,0-3.418-1.611-3.418-3.906,0-1.465.342-2.783,1.807-3.32,1.27-.488,1.855-.977,2.051-1.953l5.957-27.051c.195-.977-.098-1.611-.391-2.637l-5.566-20.312c-.293-.977-.781-1.465-2.051-1.953-1.465-.537-1.807-1.855-1.807-3.32,0-2.295,1.318-3.906,3.418-3.906h7.764c2.1,0,3.418,1.611,3.418,3.906,0,1.465-.537,2.637-1.465,3.32-.342.293-1.172.928-.977,1.953l3.125,16.699c.195,1.025.684,1.318.879.342l3.174-17.041c.195-1.025-.635-1.66-.977-1.953-.928-.684-1.465-1.855-1.465-3.32,0-2.295,1.318-3.906,3.418-3.906h7.764c2.1,0,3.418,1.611,3.418,3.906,0,1.465-.342,2.783-1.807,3.32-1.27.488-1.758.977-2.051,1.953l-5.908,21.484c-.244.977,0,1.66.244,2.637l5.664,25.879c.195.977.781,1.465,2.051,1.953,1.465.537,1.807,1.855,1.807,3.32,0,2.295-1.318,3.906-3.418,3.906h-7.52c-2.1,0-3.418-1.611-3.418-3.906Z"/>
    <path class="cls-1" d="M624.833,505.251c-.684.928-1.855,1.465-3.32,1.465-2.295,0-3.906-1.318-3.906-3.418v-6.738c0-2.1,1.611-3.418,3.906-3.418,1.465,0,2.637.537,3.32,1.465.293.342.83.928,1.758,1.025,2.246-.049,2.539-.488,2.539-3.027v-70.215c0-1.025-.684-1.66-1.025-1.953-.928-.684-1.465-1.855-1.465-3.32,0-2.295,1.318-3.906,3.418-3.906h6.934c2.1,0,3.418,1.611,3.418,3.906,0,1.465-.537,2.637-1.465,3.32-.342.293-1.025.928-1.025,1.953v70.215c0,6.689-5.566,11.621-12.256,11.621h1.123c-1.025,0-1.66.684-1.953,1.025ZM627.665,403.298c0-3.467,1.514-5.322,5.859-5.322s5.859,1.855,5.859,5.322-1.514,5.322-5.859,5.322-5.859-1.855-5.859-5.322Z"/>
    <path class="cls-1" d="M646.708,471.12v-48.73c0-1.025-.684-1.66-1.025-1.953-.928-.684-1.465-1.855-1.465-3.32,0-2.295,1.318-3.906,3.418-3.906h7.031c1.904,0,3.076,1.611,3.076,3.906,0,1.465-.488,2.637-1.318,3.32-.293.293-.928.928-.928,1.953v48.73c0,2.783.342,3.027,3.271,3.027,2.979,0,3.32-.244,3.32-3.027v-48.73c0-1.025-.635-1.66-.928-1.953-.83-.684-1.318-1.855-1.318-3.32,0-2.295,1.172-3.906,3.076-3.906h7.031c2.1,0,3.418,1.611,3.418,3.906,0,1.465-.537,2.637-1.465,3.32-.342.293-1.025.928-1.025,1.953v48.73c0,6.689-5.566,11.621-12.256,11.621-6.494,0-11.914-4.932-11.914-11.621Z"/>
    <path class="cls-1" d="M692.802,477.663c0-1.465.488-2.637,1.318-3.32.293-.293.928-.928.928-1.953v-48.73c0-2.783-.342-3.027-3.271-3.027-2.979,0-3.32.244-3.32,3.027v48.73c0,1.025.635,1.66.928,1.953.83.684,1.318,1.855,1.318,3.32,0,2.295-1.172,3.906-3.076,3.906h-7.031c-2.1,0-3.418-1.611-3.418-3.906,0-1.465.537-2.637,1.465-3.32.342-.293,1.025-.928,1.025-1.953v-48.73c0-6.689,5.566-11.621,12.256-11.621,2.344,0,4.492.635,6.445,1.807.879.586,1.562.488,2.441-.049,1.855-1.123,4.102-1.758,6.494-1.758,6.494,0,11.914,4.932,11.914,11.621v48.73c0,1.025.684,1.66,1.025,1.953.928.684,1.465,1.855,1.465,3.32,0,2.295-1.318,3.906-3.418,3.906h-7.031c-1.904,0-3.076-1.611-3.076-3.906,0-1.465.488-2.637,1.318-3.32.293-.293.928-.928.928-1.953v-48.73c0-2.783-.342-3.027-3.271-3.027-2.979,0-3.32.244-3.32,3.027v48.73c0,1.025.684,1.66,1.025,1.953.928.684,1.465,1.855,1.465,3.32,0,1.953-.928,3.369-2.49,3.809v.098h-8.789v-.098c-1.416-.439-2.246-1.855-2.246-3.809Z"/>
    <path class="cls-1" d="M738.358,482.595c-1.025-.195-1.562.195-1.562,1.221v1.953c0,1.025.684,1.66,1.025,1.953.928.684,1.465,1.855,1.465,3.32,0,2.295-1.318,3.906-3.418,3.906h-6.934c-2.1,0-3.418-1.611-3.418-3.906,0-1.465.537-2.637,1.465-3.32.342-.293,1.025-.928,1.025-1.953v-62.109c0-6.689,5.566-11.621,12.256-11.621,6.543,0,11.914,4.932,11.914,11.621v47.461c0,6.689-5.371,11.621-11.914,11.621-.684,0-1.367-.049-1.904-.146ZM743.388,471.12v-47.461c0-2.783-.342-3.027-3.271-3.027-2.979,0-3.32.244-3.32,3.027v47.461c0,2.783.342,3.027,3.32,3.027,2.93,0,3.271-.244,3.271-3.027Z"/>
    <path class="cls-1" d="M760.966,471.12v-1.074c0-1.025-.684-1.66-1.025-1.953-.928-.684-1.465-1.855-1.465-3.32,0-2.295,1.318-3.906,3.418-3.906h6.934c2.1,0,3.418,1.611,3.418,3.906,0,1.465-.537,2.637-1.465,3.32-.342.293-1.025.928-1.025,1.953v1.074c0,2.783.342,3.027,3.271,3.027,2.979,0,3.32-.244,3.32-3.027v-10.645c0-2.783-.342-3.027-3.271-3.027-6.494,0-12.109-4.932-12.109-11.621v-22.168c0-6.689,5.566-11.621,12.256-11.621,6.494,0,11.914,4.932,11.914,11.621v13.623c0,1.025.684,1.66,1.025,1.953.928.684,1.465,1.855,1.465,3.32,0,2.295-1.318,3.906-3.418,3.906h-6.934c-2.1,0-3.418-1.611-3.418-3.906,0-1.465.537-2.637,1.465-3.32.342-.293,1.025-.928,1.025-1.953v-13.623c0-2.783-.342-3.027-3.271-3.027-2.979,0-3.32.244-3.32,3.027v22.998c0,2.588.537,3.027,3.467,3.027,6.494,0,11.914,4.932,11.914,11.621v9.814c0,6.689-5.566,11.621-12.256,11.621-6.494,0-11.914-4.932-11.914-11.621Z"/>
    <path class="cls-1" d="M22.685,591.12v-47.461c0-6.689,5.566-11.621,12.256-11.621,6.494,0,11.914,4.932,11.914,11.621v47.461c0,6.689-5.42,11.621-11.914,11.621-6.689,0-12.256-4.932-12.256-11.621ZM38.065,591.12v-47.461c0-2.783-.342-3.027-3.271-3.027-2.979,0-3.32.244-3.32,3.027v47.461c0,2.783.342,3.027,3.32,3.027,2.93,0,3.271-.244,3.271-3.027Z"/>
    <path class="cls-1" d="M57.597,591.12l-1.66-48.73c0-1.025-.684-1.66-1.025-1.953-.928-.684-1.465-1.855-1.465-3.32,0-2.295,1.318-3.906,3.418-3.906h7.031c1.904,0,3.076,1.611,3.076,3.906,0,1.465-.488,2.637-1.318,3.32-.293.293-.928.928-.928,1.953l1.66,48.73c0,2.783.146,3.027,1.318,3.027,1.221,0,1.318-.244,1.367-3.027l1.66-48.73c0-1.025-.635-1.66-.928-1.953-.83-.684-1.318-1.855-1.318-3.32,0-2.295,1.172-3.906,3.076-3.906h7.031c2.1,0,3.418,1.611,3.418,3.906,0,1.465-.537,2.637-1.465,3.32-.342.293-1.025.928-1.025,1.953l-1.66,48.73c-.244,7.812-4.688,11.621-10.303,11.621-5.42,0-9.717-3.809-9.961-11.621Z"/>
    <path class="cls-1" d="M88.603,591.12v-47.461c0-6.689,5.566-11.621,12.256-11.621,6.494,0,11.914,4.932,11.914,11.621v19.385c0,1.025.684,1.66,1.025,1.953.928.684,1.465,1.855,1.465,3.32,0,2.295-1.318,3.906-3.418,3.906h-12.939c-1.025,0-1.514.488-1.514,1.514v17.383c0,2.783.342,3.027,3.32,3.027,2.93,0,3.271-.244,3.271-3.027v-4.59c0-1.025-.684-1.66-1.025-1.953-.928-.684-1.465-1.855-1.465-3.32,0-2.295,1.318-3.906,3.418-3.906h6.934c2.1,0,3.418,1.611,3.418,3.906,0,1.465-.537,2.637-1.465,3.32-.342.293-1.025.928-1.025,1.953v4.59c0,6.689-5.42,11.621-11.914,11.621-6.689,0-12.256-4.932-12.256-11.621ZM98.905,563.679h3.564c1.025,0,1.514-.488,1.514-1.514v-18.506c0-2.783-.342-3.027-3.271-3.027-2.979,0-3.32.244-3.32,3.027v18.506c0,1.025.488,1.514,1.514,1.514Z"/>
    <path class="cls-1" d="M119.071,597.663c0-1.465.537-2.637,1.465-3.32.342-.293,1.025-.928,1.025-1.953v-48.73c0-6.689,5.566-11.621,12.256-11.621,6.494,0,11.914,4.932,11.914,11.621v11.084c0,1.025.684,1.66,1.025,1.953.928.684,1.465,1.855,1.465,3.32,0,2.295-1.318,3.906-3.418,3.906h-6.934c-2.1,0-3.418-1.611-3.418-3.906,0-1.465.537-2.637,1.465-3.32.342-.293,1.025-.928,1.025-1.953v-11.084c0-2.783-.342-3.027-3.271-3.027-2.979,0-3.32.244-3.32,3.027v48.73c0,1.025.684,1.66,1.025,1.953.928.684,1.465,1.855,1.465,3.32,0,2.295-1.318,3.906-3.418,3.906h-6.934c-2.1,0-3.418-1.611-3.418-3.906Z"/>
    <path class="cls-1" d="M174.296,591.12v-60.938c0-1.025-.684-1.66-1.025-1.953-.928-.684-1.465-1.855-1.465-3.32,0-2.295,1.318-3.906,3.418-3.906h6.934c2.1,0,3.418,1.611,3.418,3.906,0,1.465-.537,2.637-1.465,3.32-.342.293-1.025.928-1.025,1.953v1.514c0,1.025.488,1.514,1.514,1.514h4.688c1.025,0,1.66-.684,1.953-1.025.684-.928,1.855-1.465,3.32-1.465,2.295,0,3.906,1.318,3.906,3.418v6.689c0,2.1-1.611,3.418-3.906,3.418-1.465,0-2.637-.537-3.32-1.465-.293-.342-.928-1.025-1.953-1.025h-4.688c-1.025,0-1.514.488-1.514,1.514v47.852c0,2.783.342,3.027,3.32,3.027,2.93,0,3.271-.244,3.271-3.027v-32.373c0-1.025-.684-1.66-1.025-1.953-.928-.684-1.465-1.855-1.465-3.32,0-2.295,1.318-3.906,3.418-3.906h6.934c2.1,0,3.418,1.611,3.418,3.906,0,1.465-.537,2.637-1.465,3.32-.342.293-1.025.928-1.025,1.953v32.373c0,6.689-5.42,11.621-11.914,11.621-6.689,0-12.256-4.932-12.256-11.621Z"/>
    <path class="cls-1" d="M204.765,597.663c0-1.465.537-2.637,1.465-3.32.342-.293,1.025-.928,1.025-1.953v-62.207c0-1.025-.684-1.66-1.025-1.953-.928-.684-1.465-1.855-1.465-3.32,0-2.295,1.318-3.906,3.418-3.906h6.934c2.1,0,3.418,1.611,3.418,3.906,0,1.465-.537,2.637-1.465,3.32-.342.293-1.025.928-1.025,1.953v.732c0,1.025.488,1.465,1.514,1.318.586-.146,1.27-.195,1.953-.195,6.494,0,11.914,4.932,11.914,11.621v48.73c0,1.025.684,1.66,1.025,1.953.928.684,1.465,1.855,1.465,3.32,0,2.295-1.318,3.906-3.418,3.906h-7.031c-1.904,0-3.076-1.611-3.076-3.906,0-1.465.488-2.637,1.318-3.32.293-.293.928-.928.928-1.953v-48.73c0-2.783-.342-3.027-3.271-3.027-2.979,0-3.32.244-3.32,3.027v48.73c0,1.025.635,1.66.928,1.953.83.684,1.318,1.855,1.318,3.32,0,2.295-1.172,3.906-3.076,3.906h-7.031c-2.1,0-3.418-1.611-3.418-3.906Z"/>
    <path class="cls-1" d="M240.214,591.12v-47.461c0-6.689,5.566-11.621,12.256-11.621,6.494,0,11.914,4.932,11.914,11.621v19.385c0,1.025.684,1.66,1.025,1.953.928.684,1.465,1.855,1.465,3.32,0,2.295-1.318,3.906-3.418,3.906h-12.939c-1.025,0-1.514.488-1.514,1.514v17.383c0,2.783.342,3.027,3.32,3.027,2.93,0,3.271-.244,3.271-3.027v-4.59c0-1.025-.684-1.66-1.025-1.953-.928-.684-1.465-1.855-1.465-3.32,0-2.295,1.318-3.906,3.418-3.906h6.934c2.1,0,3.418,1.611,3.418,3.906,0,1.465-.537,2.637-1.465,3.32-.342.293-1.025.928-1.025,1.953v4.59c0,6.689-5.42,11.621-11.914,11.621-6.689,0-12.256-4.932-12.256-11.621ZM250.517,563.679h3.564c1.025,0,1.514-.488,1.514-1.514v-18.506c0-2.783-.342-3.027-3.271-3.027-2.979,0-3.32.244-3.32,3.027v18.506c0,1.025.488,1.514,1.514,1.514Z"/>
    <path class="cls-1" d="M290.458,597.663c0-1.465.537-2.637,1.465-3.32.342-.293,1.025-.928,1.025-1.953v-55.859c0-8.301-.781-11.279-1.367-12.891-.244-.684-.342-1.123-.342-1.611,0-1.514,1.367-2.002,2.344-2.002.83,0,1.709.293,2.686.977.781.684,1.465.635,2.246,0,.879-.684,1.758-.977,2.588-.977.977,0,2.344.488,2.344,2.002,0,.488-.098.977-.342,1.611-.635,1.611-1.367,4.639-1.367,12.891v55.859c0,1.025.684,1.66,1.025,1.953.928.684,1.465,1.855,1.465,3.32,0,2.295-1.318,3.906-3.418,3.906h-6.934c-2.1,0-3.418-1.611-3.418-3.906Z"/>
    <path class="cls-1" d="M308.036,597.663c0-1.465.537-2.637,1.465-3.32.342-.293,1.025-.928,1.025-1.953v-48.73c0-6.689,5.42-11.621,11.914-11.621,6.689,0,12.256,4.932,12.256,11.621v48.73c0,1.025.684,1.66,1.025,1.953.928.684,1.465,1.855,1.465,3.32,0,2.295-1.318,3.906-3.418,3.906h-6.934c-2.1,0-3.418-1.611-3.418-3.906,0-1.465.537-2.637,1.465-3.32.342-.293,1.025-.928,1.025-1.953v-28.418c0-1.025-.488-1.514-1.514-1.514h-3.564c-1.025,0-1.514.488-1.514,1.514v28.418c0,1.025.684,1.66,1.025,1.953.928.684,1.465,1.855,1.465,3.32,0,2.295-1.318,3.906-3.418,3.906h-6.934c-2.1,0-3.418-1.611-3.418-3.906ZM320.829,553.913h3.564c1.025,0,1.514-.488,1.514-1.514v-8.74c0-2.783-.342-3.027-3.32-3.027-2.93,0-3.271.244-3.271,3.027v8.74c0,1.025.488,1.514,1.514,1.514Z"/>
    <path class="cls-1" d="M341.288,597.663c0-3.906.879-8.35,1.807-11.963l10.693-42.334c.244-.977-.098-1.562-1.123-1.562h-2.148c-1.025,0-1.66.684-1.953,1.025-.684.928-1.855,1.465-3.32,1.465-2.295,0-3.906-1.318-3.906-3.418v-6.738c0-2.1,1.611-3.418,3.906-3.418,1.465,0,2.637.537,3.32,1.465.293.342.928,1.025,1.953,1.025h7.91c2.539,0,4.834,1.221,4.834,3.809,0,4.199-.83,8.057-1.367,10.107l-11.133,44.287c-.244.977.098,1.562,1.123,1.562h3.662c1.025,0,1.66-.684,1.953-1.025.684-.928,1.855-1.465,3.32-1.465,2.295,0,3.906,1.318,3.906,3.418v6.738c0,2.1-1.611,3.418-3.906,3.418-1.465,0-2.637-.537-3.32-1.465-.293-.342-.928-1.025-1.953-1.025h-10.352c-2.539,0-3.906-1.367-3.906-3.906Z"/>
    <path class="cls-1" d="M372.05,591.12v-48.73c0-1.025-.684-1.66-1.025-1.953-.928-.684-1.465-1.855-1.465-3.32,0-2.295,1.318-3.906,3.418-3.906h7.031c1.904,0,3.076,1.611,3.076,3.906,0,1.465-.488,2.637-1.318,3.32-.293.293-.928.928-.928,1.953v48.73c0,2.783.342,3.027,3.32,3.027,2.93,0,3.271-.244,3.271-3.027v-48.73c0-1.025-.635-1.66-.928-1.953-.83-.684-1.318-1.855-1.318-3.32,0-2.295,1.172-3.906,3.076-3.906h7.031c2.1,0,3.418,1.611,3.418,3.906,0,1.465-.537,2.637-1.465,3.32-.342.293-1.025.928-1.025,1.953v63.379c0,1.025.684,1.66,1.025,1.953.928.684,1.465,1.855,1.465,3.32,0,2.295-1.318,3.906-3.418,3.906h-6.934c-2.1,0-3.418-1.611-3.418-3.906,0-1.465.537-2.637,1.465-3.32.342-.293,1.025-.928,1.025-1.953v-1.855c0-1.025-.488-1.465-1.514-1.27-.488.049-1.074.098-1.611.098-6.689,0-12.256-4.932-12.256-11.621Z"/>
    <path class="cls-1" d="M424.784,591.12v-47.461c0-6.689,5.371-11.621,11.914-11.621.684,0,1.367.049,1.904.146,1.025.195,1.562-.195,1.562-1.221v-1.953c0-1.025-.684-1.66-1.025-1.953-.928-.684-1.465-1.855-1.465-3.32,0-2.295,1.318-3.906,3.418-3.906h6.934c2.1,0,3.418,1.611,3.418,3.906,0,1.465-.537,2.637-1.465,3.32-.342.293-1.025.928-1.025,1.953v62.109c0,6.689-5.566,11.621-12.256,11.621-6.543,0-11.914-4.932-11.914-11.621ZM440.165,591.12v-47.461c0-2.783-.342-3.027-3.32-3.027-2.93,0-3.271.244-3.271,3.027v47.461c0,2.783.342,3.027,3.271,3.027,2.979,0,3.32-.244,3.32-3.027Z"/>
    <path class="cls-1" d="M457.743,591.12v-47.461c0-6.689,5.566-11.621,12.256-11.621,6.494,0,11.914,4.932,11.914,11.621v47.461c0,6.689-5.42,11.621-11.914,11.621-6.689,0-12.256-4.932-12.256-11.621ZM473.124,591.12v-47.461c0-2.783-.342-3.027-3.271-3.027-2.979,0-3.32.244-3.32,3.027v47.461c0,2.783.342,3.027,3.32,3.027,2.93,0,3.271-.244,3.271-3.027Z"/>
    <path class="cls-1" d="M490.849,591.12v-1.074c0-1.025-.684-1.66-1.025-1.953-.928-.684-1.465-1.855-1.465-3.32,0-2.295,1.318-3.906,3.418-3.906h6.934c2.1,0,3.418,1.611,3.418,3.906,0,1.465-.537,2.637-1.465,3.32-.342.293-1.025.928-1.025,1.953v1.074c0,2.783.342,3.027,3.271,3.027,2.979,0,3.32-.244,3.32-3.027v-11.621c0-2.783-.342-3.027-3.271-3.027-6.494,0-12.109-4.932-12.109-11.621v-.586c0-2.295.586-4.346,1.758-6.25.586-.83.537-1.514,0-2.441-1.221-1.562-1.904-3.662-1.904-5.957v-5.957c0-6.689,5.566-11.621,12.256-11.621.146,0,.293,0,.635.049,1.025.049,1.611-.342,2.148-1.221l-.049.098c.537-.83.342-1.758.195-2.197-.391-1.074-.195-2.344.586-3.564,1.27-1.904,3.271-2.539,5.029-1.416l5.176,3.418.635.391c1.758,1.172,1.953,3.223.732,5.127-.83,1.221-1.904,1.904-3.076,2.002-.439.049-1.367.195-1.904,1.074l.195-.293c-.537.879-.439,1.562.146,2.393.928,1.66,1.465,3.613,1.465,5.762v5.957c0,6.689-5.371,11.621-11.914,11.621-2.979,0-3.32.244-3.32,3.027v1.416c0,2.588.537,3.027,3.467,3.027,6.494,0,11.914,4.932,11.914,11.621v10.791c0,6.689-5.566,11.621-12.256,11.621-6.494,0-11.914-4.932-11.914-11.621ZM506.083,549.616v-5.957c0-2.783-.342-3.027-3.271-3.027-2.979,0-3.32.244-3.32,3.027v5.957c0,2.783.342,3.027,3.32,3.027,2.93,0,3.271-.244,3.271-3.027Z"/>
  </g>
  <g>
    <path class="cls-1" d="M24.551,249.102V92.48c0-22.075,18.369-38.35,40.444-38.35,21.431,0,39.316,16.274,39.316,38.35v156.621c0,22.075-17.886,38.35-39.316,38.35-22.075,0-40.444-16.274-40.444-38.35ZM75.308,249.102V92.48c0-9.185-1.128-9.99-10.796-9.99-9.829,0-10.957.806-10.957,9.99v156.621c0,9.185,1.128,9.99,10.957,9.99,9.668,0,10.796-.806,10.796-9.99Z"/>
    <path class="cls-1" d="M139.761,249.102l-5.479-160.811c0-3.384-2.256-5.479-3.384-6.445-3.062-2.256-4.834-6.123-4.834-10.957,0-7.573,4.351-12.891,11.279-12.891h23.203c6.284,0,10.151,5.317,10.151,12.891,0,4.834-1.611,8.701-4.351,10.957-.967.967-3.062,3.062-3.062,6.445l5.479,160.811c0,9.185.483,9.99,4.351,9.99,4.028,0,4.351-.806,4.512-9.99l5.479-160.811c0-3.384-2.095-5.479-3.062-6.445-2.739-2.256-4.351-6.123-4.351-10.957,0-7.573,3.867-12.891,10.151-12.891h23.203c6.929,0,11.279,5.317,11.279,12.891,0,4.834-1.772,8.701-4.834,10.957-1.128.967-3.384,3.062-3.384,6.445l-5.479,160.811c-.806,25.781-15.469,38.35-33.999,38.35-17.886,0-32.065-12.568-32.871-38.35Z"/>
    <path class="cls-1" d="M242.08,249.102V92.48c0-22.075,18.369-38.35,40.444-38.35,21.431,0,39.316,16.274,39.316,38.35v63.97c0,3.384,2.256,5.479,3.384,6.445,3.062,2.256,4.834,6.123,4.834,10.957,0,7.573-4.351,12.891-11.279,12.891h-42.7c-3.384,0-4.995,1.611-4.995,4.995v57.363c0,9.185,1.128,9.99,10.957,9.99,9.668,0,10.796-.806,10.796-9.99v-15.146c0-3.384-2.256-5.479-3.384-6.445-3.062-2.256-4.834-6.123-4.834-10.957,0-7.573,4.351-12.891,11.279-12.891h22.881c6.929,0,11.279,5.317,11.279,12.891,0,4.834-1.772,8.701-4.834,10.957-1.128.967-3.384,3.062-3.384,6.445v15.146c0,22.075-17.886,38.35-39.316,38.35-22.075,0-40.444-16.274-40.444-38.35ZM276.079,158.545h11.763c3.384,0,4.995-1.611,4.995-4.995v-61.069c0-9.185-1.128-9.99-10.796-9.99-9.829,0-10.957.806-10.957,9.99v61.069c0,3.384,1.611,4.995,4.995,4.995Z"/>
    <path class="cls-1" d="M342.627,270.693c0-4.834,1.772-8.701,4.834-10.957,1.128-.967,3.384-3.062,3.384-6.445V92.48c0-22.075,18.369-38.35,40.444-38.35,21.431,0,39.316,16.274,39.316,38.35v36.577c0,3.384,2.256,5.479,3.384,6.445,3.062,2.256,4.834,6.123,4.834,10.957,0,7.573-4.351,12.891-11.279,12.891h-22.881c-6.929,0-11.279-5.317-11.279-12.891,0-4.834,1.772-8.701,4.834-10.957,1.128-.967,3.384-3.062,3.384-6.445v-36.577c0-9.185-1.128-9.99-10.796-9.99-9.829,0-10.957.806-10.957,9.99v160.811c0,3.384,2.256,5.479,3.384,6.445,3.062,2.256,4.834,6.123,4.834,10.957,0,7.573-4.351,12.891-11.279,12.891h-22.881c-6.929,0-11.279-5.317-11.279-12.891Z"/>
    <path class="cls-1" d="M493.77,286.968c-3.384-.645-5.156.645-5.156,4.028v6.445c0,3.384,2.256,5.479,3.384,6.445,3.062,2.256,4.834,6.123,4.834,10.957,0,7.573-4.351,12.891-11.279,12.891h-22.881c-6.929,0-11.279-5.317-11.279-12.891,0-4.834,1.772-8.701,4.834-10.957,1.128-.967,3.384-3.062,3.384-6.445V92.48c0-22.075,18.369-38.35,40.444-38.35,21.592,0,39.316,16.274,39.316,38.35v156.621c0,22.075-17.725,38.35-39.316,38.35-2.256,0-4.512-.161-6.284-.483ZM510.366,249.102V92.48c0-9.185-1.128-9.99-10.796-9.99-9.829,0-10.957.806-10.957,9.99v156.621c0,9.185,1.128,9.99,10.957,9.99,9.668,0,10.796-.806,10.796-9.99Z"/>
    <path class="cls-1" d="M560.156,270.693c0-4.834,1.772-8.701,4.834-10.957,1.128-.967,3.384-3.062,3.384-6.445V92.48c0-22.075,17.886-38.35,39.316-38.35,22.075,0,40.444,16.274,40.444,38.35v160.811c0,3.384,2.256,5.479,3.384,6.445,3.062,2.256,4.834,6.123,4.834,10.957,0,7.573-4.351,12.891-11.279,12.891h-22.881c-6.929,0-11.279-5.317-11.279-12.891,0-4.834,1.772-8.701,4.834-10.957,1.128-.967,3.384-3.062,3.384-6.445v-93.779c0-3.384-1.611-4.995-4.995-4.995h-11.763c-3.384,0-4.995,1.611-4.995,4.995v93.779c0,3.384,2.256,5.479,3.384,6.445,3.062,2.256,4.834,6.123,4.834,10.957,0,7.573-4.351,12.891-11.279,12.891h-22.881c-6.929,0-11.279-5.317-11.279-12.891ZM602.373,126.318h11.763c3.384,0,4.995-1.611,4.995-4.995v-28.843c0-9.185-1.128-9.99-10.957-9.99-9.668,0-10.796.806-10.796,9.99v28.843c0,3.384,1.611,4.995,4.995,4.995Z"/>
    <path class="cls-1" d="M668.921,270.693c0-4.834,1.772-8.701,4.834-10.957,1.128-.967,3.384-3.062,3.384-6.445V88.291c0-3.384-2.256-5.479-3.384-6.445-3.062-2.256-4.834-6.123-4.834-10.957,0-7.573,4.351-12.891,11.279-12.891h22.881c6.929,0,11.279,5.317,11.279,12.891,0,4.834-1.772,8.701-4.834,10.957-1.128.967-3.384,3.062-3.384,6.445v165c0,3.384,2.256,5.479,3.384,6.445,3.062,2.256,4.834,6.123,4.834,10.957,0,7.573-4.351,12.891-11.279,12.891h-22.881c-6.929,0-11.279-5.317-11.279-12.891ZM672.305,25.288c0-11.44,4.995-17.563,19.336-17.563s19.336,6.123,19.336,17.563-4.995,17.563-19.336,17.563-19.336-6.123-19.336-17.563Z"/>
    <path class="cls-1" d="M726.929,270.693c0-4.834,1.772-8.701,4.834-10.957,1.128-.967,3.384-3.062,3.384-6.445V92.48c0-22.075,18.369-38.35,40.444-38.35,21.431,0,39.316,16.274,39.316,38.35v160.811c0,3.384,2.256,5.479,3.384,6.445,3.062,2.256,4.834,6.123,4.834,10.957,0,7.573-4.351,12.891-11.279,12.891h-23.203c-6.284,0-10.151-5.317-10.151-12.891,0-4.834,1.611-8.701,4.351-10.957.967-.967,3.062-3.062,3.062-6.445V92.48c0-9.185-1.128-9.99-10.796-9.99-9.829,0-10.957.806-10.957,9.99v160.811c0,3.384,2.095,5.479,3.062,6.445,2.739,2.256,4.351,6.123,4.351,10.957,0,7.573-3.867,12.891-10.151,12.891h-23.203c-6.929,0-11.279-5.317-11.279-12.891Z"/>
    <path class="cls-1" d="M843.911,249.102V48.008c0-3.384-2.256-5.479-3.384-6.445-3.062-2.256-4.834-6.123-4.834-10.957,0-7.573,4.351-12.891,11.279-12.891h22.881c6.929,0,11.279,5.317,11.279,12.891,0,4.834-1.772,8.701-4.834,10.957-1.128.967-3.384,3.062-3.384,6.445v4.995c0,3.384,1.611,4.995,4.995,4.995h15.469c3.384,0,5.479-2.256,6.445-3.384,2.256-3.062,6.123-4.834,10.957-4.834,7.573,0,12.891,4.351,12.891,11.279v22.075c0,6.929-5.317,11.279-12.891,11.279-4.834,0-8.701-1.772-10.957-4.834-.967-1.128-3.062-3.384-6.445-3.384h-15.469c-3.384,0-4.995,1.611-4.995,4.995v157.91c0,9.185,1.128,9.99,10.957,9.99,9.668,0,10.796-.806,10.796-9.99v-106.831c0-3.384-2.256-5.479-3.384-6.445-3.062-2.256-4.834-6.123-4.834-10.957,0-7.573,4.351-12.891,11.279-12.891h22.881c6.929,0,11.279,5.317,11.279,12.891,0,4.834-1.772,8.701-4.834,10.957-1.128.967-3.384,3.062-3.384,6.445v106.831c0,22.075-17.886,38.35-39.316,38.35-22.075,0-40.444-16.274-40.444-38.35Z"/>
  </g>
</svg>